<svg width="667" height="762" viewBox="0 0 667 762" fill="none" xmlns="http://www.w3.org/2000/svg">
<path fill-rule="evenodd" clip-rule="evenodd" d="M326.09 0.605019C318.449 3.11202 312.458 8.47002 309.175 15.731L307.14 20.231L307.118 68.588L307.096 116.945L305.346 116.274C304.384 115.905 290.417 107.727 274.309 98.1C258.2 88.474 243.391 79.917 241.399 79.084C239.407 78.252 235.054 77.584 231.727 77.6L225.677 77.629L220.179 80.44C210.402 85.44 205.375 94.677 206.374 105.803C206.967 112.411 209.668 118.071 214.258 122.323C216.094 124.024 237.733 137.428 262.346 152.109L307.096 178.803V256.767C307.096 299.647 306.759 334.719 306.346 334.704C305.933 334.689 274.996 316.982 237.596 295.355L169.596 256.033L168.853 227.632C168.444 212.011 167.748 187.531 167.306 173.231L166.502 147.231L164.386 143.231C161.898 138.525 156.996 133.692 152.096 131.113L148.596 129.271L141.096 129.274L133.596 129.277L129.468 131.462C123.792 134.466 117.629 141.754 116.078 147.297L114.794 151.882L115.509 188.307C115.903 208.34 116.026 224.731 115.783 224.731C115.54 224.731 97.4482 214.405 75.5802 201.784C48.7522 186.302 34.2532 178.501 31.0062 177.805C19.4832 175.334 7.49423 181.387 2.44723 192.224C-1.95177 201.67 -0.320789 212.897 6.53921 220.402L10.5962 224.84L50.8622 248.035C73.0082 260.793 91.2332 271.667 91.3622 272.201C91.4912 272.734 76.9712 281.421 59.0962 291.505C41.2212 301.59 25.3022 311.053 23.7202 312.536C22.1372 314.018 19.7792 317.481 18.4792 320.231L16.1162 325.231L16.1062 331.398C16.0932 339.39 18.5672 345.08 24.3802 350.431C30.0102 355.614 38.0202 358.269 44.9062 357.237C50.6252 356.379 54.8472 354.254 86.9422 336.074C101.052 328.082 120.083 317.308 129.234 312.132L145.872 302.722L162.734 312.582C178.978 322.081 206.101 337.734 256.329 366.594C269.383 374.094 280.05 380.456 280.035 380.731C280.02 381.006 273.616 384.895 265.802 389.374C257.989 393.852 227.296 411.574 197.596 428.755L143.596 459.994L136.596 456.224C132.746 454.15 113.171 443.22 93.0962 431.935C73.0212 420.65 54.3462 410.366 51.5962 409.083L46.5962 406.751L40.5962 406.763C30.5522 406.783 22.0282 411.985 17.5472 420.828L15.0962 425.665V432.501V439.338L17.6012 444.365C18.9792 447.13 21.1162 450.335 22.3512 451.488C24.5632 453.554 39.3022 462.086 72.8632 480.731C82.2682 485.956 89.6352 490.567 89.2342 490.977C88.8332 491.387 82.0002 495.465 74.0502 500.039C66.1002 504.613 51.9462 512.795 42.5962 518.221C33.2462 523.647 22.1382 530.042 17.9112 532.432C5.34422 539.537 0.0962177 547.137 0.0962177 558.231C0.0962177 564.953 1.88023 570.119 5.77423 574.668C10.2082 579.848 14.7052 582.519 21.0042 583.714C31.1682 585.641 29.2462 586.543 90.8552 550.916C105.297 542.564 117.396 535.731 117.742 535.731C118.087 535.731 118.088 539.893 117.743 544.981C117.398 550.068 117.041 567.506 116.949 583.731L116.781 613.231L118.777 617.742C121.168 623.149 125.832 628.019 131.462 630.99L135.596 633.172L142.623 633.201L149.649 633.231L154.623 630.673C160.466 627.667 166.474 620.294 167.951 614.316C168.506 612.068 169.283 587.806 169.677 560.369C170.072 532.945 170.678 509.118 171.026 507.421L171.657 504.335L176.626 501.405C179.36 499.794 194.646 490.949 210.596 481.75C226.546 472.551 254.194 456.587 272.036 446.274C289.878 435.96 305.066 427.296 305.786 427.02L307.096 426.517V505.913V585.309L262.057 612.176C235.935 627.759 215.389 640.673 213.139 642.923C203.724 652.339 203.844 668.578 213.403 678.569C217.955 683.327 223.606 685.922 230.644 686.487L236.751 686.977L241.265 684.981C243.747 683.883 259.221 674.94 275.651 665.108C292.081 655.275 305.878 647.081 306.31 646.898C306.742 646.714 307.106 667.864 307.118 693.898L307.14 741.231L309.175 745.731C311.672 751.255 316.296 756.211 321.596 759.045L325.596 761.185H333.096H340.596L344.596 759.045C349.896 756.211 354.52 751.255 357.017 745.731L359.052 741.231L359.074 693.481C359.086 667.218 359.485 645.731 359.961 645.731C360.437 645.731 374.049 653.668 390.211 663.368C406.373 673.068 421.621 681.915 424.096 683.028C433.858 687.417 445.854 684.972 453.093 677.118C458.269 671.503 460.155 667.088 460.235 660.402C460.334 652.122 458.556 647.351 453.318 641.848L448.596 636.886L403.846 610.278L359.096 583.67V505.094V426.517L360.369 427.005C361.069 427.274 383.681 440.227 410.619 455.79C437.556 471.353 467.921 488.891 478.096 494.764L496.596 505.442L497.207 512.337C497.543 516.128 498.139 539.481 498.53 564.231C498.921 588.981 499.7 611.388 500.261 614.024C501.552 620.096 506.287 626.336 512.533 630.198L517.401 633.208L524.499 633.555L531.596 633.902L537.078 631.024C543.487 627.658 548.456 621.664 550.414 614.937L551.783 610.231L551.08 573.731C550.693 553.656 550.483 537.098 550.614 536.937C550.745 536.775 557.319 540.424 565.224 545.047C573.129 549.67 591.353 560.196 605.723 568.439L631.851 583.426L636.223 584.007C647.854 585.555 658.909 579.623 663.745 569.238C665.372 565.745 666.076 562.417 666.076 558.231V552.231L663.709 547.231C660.373 540.188 656.824 537.323 638.096 526.559C589.91 498.864 575.097 490.205 575.111 489.742C575.119 489.461 586.932 482.606 601.361 474.509C615.79 466.412 631.11 457.723 635.406 455.2L643.215 450.612L646.113 446.044C647.706 443.531 649.538 439.116 650.183 436.231L651.357 430.987L650.127 425.862C647.649 415.53 639.854 407.86 629.685 405.75L624.405 404.653L619.5 405.742C616.675 406.37 607.388 410.915 597.596 416.462C549.193 443.882 522.489 458.725 521.556 458.728C520.985 458.73 500.96 447.435 477.056 433.628C453.153 419.821 422.925 402.384 409.883 394.878C396.841 387.372 386.168 381.006 386.166 380.731C386.164 380.456 394.135 375.657 403.879 370.067C413.623 364.477 444.227 346.818 471.888 330.825L522.179 301.748L536.888 310.126C565.47 326.408 611.648 352.071 615.596 353.867C620.112 355.922 628.601 356.274 634.451 354.65C639.05 353.372 646.533 346.755 649.127 341.671C653.653 332.799 652.231 320.75 645.767 313.204L642.363 309.231L609.271 290.731C591.07 280.556 576.306 271.792 576.462 271.256C576.741 270.299 582.425 266.938 630.596 239.246C643.796 231.658 656.114 224.051 657.968 222.34C659.823 220.63 662.406 216.981 663.709 214.231L666.076 209.231V203.231C666.076 192.718 659.87 183.234 650.309 179.135C648.267 178.26 643.771 177.502 640.319 177.451L634.041 177.357L626.319 181.402C619.666 184.886 561.867 218.106 552.233 223.983L548.869 226.034L549.233 187.133L549.596 148.231L546.861 143.043C540.978 131.886 528.687 126.688 516.498 130.202L510.596 131.903L505.42 137.22C502.485 140.234 499.723 144.202 499.041 146.383C497.914 149.99 496.44 198.794 496.189 240.831L496.096 256.43L472.846 269.763C460.058 277.096 443.296 286.759 435.596 291.236C427.896 295.713 411.921 304.932 400.096 311.722C388.271 318.512 374.996 326.213 370.596 328.835C366.196 331.457 361.806 333.906 360.84 334.276L359.084 334.95L359.34 256.119L359.596 177.289L405.096 150.096L450.596 122.902L454.165 118.892C458.357 114.181 460.323 108.39 460.234 101.007C460.042 84.918 444.144 72.712 428.509 76.649C425.726 77.349 410.96 85.495 392.016 96.778C374.517 107.202 359.967 115.731 359.684 115.731C359.4 115.731 359.039 93.794 358.882 66.981L358.596 18.231L356.734 14.731C354.102 9.78302 349.262 4.89902 344.625 2.51102C340.315 0.290017 330.214 -0.747981 326.09 0.605019Z" fill="black"/>
</svg>
