<svg width="1512" height="558" viewBox="0 0 1512 558" fill="none" xmlns="http://www.w3.org/2000/svg">
<path fill-rule="evenodd" clip-rule="evenodd" d="M662.263 2.25001C659.068 5.10301 654.758 11.295 647.47 23.5C643.693 29.825 639.174 37.025 637.428 39.5C633.546 45.004 627 57.317 627 59.116C627 59.839 625.728 61.909 624.173 63.715C622.618 65.522 619.616 69.638 617.501 72.862C613.266 79.32 601.856 89.405 593.727 93.874C585.918 98.168 583.323 101.097 580.4 108.913C576.044 120.564 574.302 124.266 565.297 141C540.59 186.918 535.952 194.556 528.869 201.001C524.114 205.328 493.684 221.195 488.292 222.16L485.083 222.733L480.292 217.534C461.806 197.477 446.522 183.5 443.074 183.5C440.277 183.5 420.352 199.12 409.929 209.484C404.666 214.718 397.957 222.6 395.021 227C392.085 231.4 387.57 237.7 384.987 241C382.404 244.3 376.363 252.541 371.561 259.314C359.575 276.222 348.289 287.455 334 296.697C318.351 306.818 303.685 318.818 294.313 329.168C290.016 333.914 284.588 339.814 282.251 342.279L278.003 346.76L273.251 346.242L268.5 345.724L250.094 336.362C222.795 322.476 203.55 308.377 190.971 293.049C184.597 285.281 168.888 272.98 159.818 268.653C156.343 266.996 150.476 265.083 146.78 264.402L140.06 263.165L135.78 264.434C133.426 265.132 124.525 269.819 116 274.849L100.5 283.995L89.416 294.997C83.32 301.049 73.42 312.273 67.416 319.94C44.609 349.065 39.098 354.252 14.23 370L0.018 379L0.009 385.65L0 392.3L3.25 389.098C5.037 387.336 13.025 382.012 21 377.265C43.904 363.633 49.301 358.515 74.732 326.316C81.46 317.798 91.141 306.817 96.245 301.914L105.525 293L121.018 283.75L136.511 274.5H141.077C153.816 274.5 169.882 284.553 185.175 302.093C200.702 319.902 215.369 330.318 248.313 346.931L268.008 356.863L265.754 359.311C264.514 360.657 260.759 363.838 257.409 366.379C227.95 388.726 221.94 393.065 218.056 394.791L213.611 396.765L196.556 397.553C186.189 398.031 177.539 398.946 174.5 399.884C167.609 402.013 159.324 407.188 151.282 414.386C137.684 426.559 113.724 444.307 98.793 453.269C79.165 465.049 63.226 472.568 28.25 486.544L0 497.832V501.666C0 504.072 0.465 505.496 1.25 505.489C5.197 505.454 36.608 494.1 56 485.698C75.572 477.219 80.083 475.031 93.411 467.555C116.568 454.567 123.559 449.716 143.166 433.026C163.087 416.07 169.876 411.569 178.5 409.602C183.547 408.451 209 405.62 209 406.21C209 406.385 207.087 408.92 204.75 411.843C202.412 414.766 196.45 422.689 191.5 429.45C186.55 436.211 179.996 444.051 176.934 446.872C173.694 449.858 164.114 456.153 154 461.943C129.146 476.171 108 490.274 108 492.622C108 494.777 112.626 492.725 133.852 481.154C146.309 474.364 161.599 466.151 167.83 462.904C181.245 455.914 187.398 450.702 195.502 439.466C213.981 413.846 222.093 405.484 247.023 386.36C265.57 372.133 285.417 354.472 292.609 345.798C301.618 334.931 317.623 320.016 329.643 311.288C342.243 302.137 345 300.545 345 302.418C345 305.059 337.325 318.401 325.919 335.587C304.104 368.459 298.289 375.432 283.325 386.662C271.817 395.3 267.678 399.453 252.608 417.494C245.948 425.465 237.623 435.038 234.107 438.767C230.59 442.496 228.009 445.842 228.369 446.203C229.575 447.408 236.114 443.505 241.734 438.225C244.793 435.351 252.371 427.245 258.573 420.21C269.53 407.784 279.55 398.802 293.092 389.267C308.677 378.292 339.371 336.323 356.342 302.783L364.834 286L375.415 271.5C381.234 263.525 391 250.025 397.116 241.5C407.469 227.069 425.006 207.5 427.586 207.5C429.286 207.5 430.29 222.709 428.925 227.779C427.592 232.73 420.739 250.131 418.035 255.431C416.994 257.472 413.354 262.218 409.945 265.979C399.322 277.701 376.947 313.587 377.041 318.752L377.081 321L380.149 317.5C381.836 315.575 384.816 311.525 386.771 308.5C395.95 294.294 405.042 282.296 412.307 274.801L420.254 266.603L424.482 256.655C426.807 251.184 429.787 244.973 431.104 242.854L433.5 239L434.348 247C436.003 262.601 435.181 265.073 423.437 279.8C414.205 291.378 406.436 306.5 409.72 306.5C410.789 306.5 423.456 291.328 432.778 278.882C436.231 274.272 439.518 270.5 440.084 270.5C440.65 270.5 442.014 272.537 443.115 275.027C445.331 280.036 445.028 282.316 441.524 287C437.484 292.401 430.226 306.828 427.186 315.5C419.832 336.475 414.04 348.352 408.828 353.146C407.548 354.324 402.9 357.097 398.5 359.309C387.821 364.676 380.292 370.077 367.04 381.875L355.983 391.718L350.599 399.859C345.547 407.497 333.666 422.564 318.157 441C301.593 460.689 298.196 465.5 300.856 465.5C305.102 465.5 332.811 435.589 352.348 409.916C361.229 398.245 379.587 380.5 382.78 380.5C383.781 380.5 385.206 379.938 385.947 379.25L387.294 378L386.527 380C383.918 386.799 383 391.781 383 399.139C383 412.322 381.009 437.463 379.47 443.707C378.696 446.845 376.024 453.474 373.532 458.437C371.039 463.4 369 467.919 369 468.48C369 472.597 376.466 462.994 382.32 451.348L386.014 444L387.438 432.5C388.222 426.175 389.322 414.113 389.883 405.696L390.903 390.391L393.309 385.135C394.793 381.895 399.238 376.131 404.903 370.103C421.918 351.998 424.011 348.657 433.568 324.355C440.225 307.427 446.111 295.683 449.569 292.435L452.057 290.098L461.098 299.049C466.071 303.972 472.356 310.925 475.065 314.5C480.863 322.151 486 333.769 486 339.233V343.106L483.016 347.164C481.375 349.396 476.608 357.472 472.424 365.111C465.426 377.886 458.554 388.839 448.163 403.78C443.743 410.134 440.285 418.133 441.465 419.272C441.879 419.673 442.957 418.883 443.859 417.517C446.202 413.971 454.132 403.576 463.192 392.173C470.33 383.189 473.307 378.545 485.9 356.75L490.089 349.5H492.121C493.238 349.5 496.705 351.464 499.826 353.864C502.947 356.263 510.622 361.448 516.882 365.384C530.688 374.065 534.14 376.717 544.743 386.794C549.277 391.102 553.446 394.342 554.009 393.994C555.137 393.297 555.001 392.993 550.633 386.5C545.472 378.828 536.902 370.548 527 363.665C513.174 354.055 499.753 344.03 497.803 341.853C496.87 340.812 494.681 335.919 492.939 330.98C486.616 313.054 482.637 307.142 464.692 289.013L455.797 280.026L450.466 269.013C444.502 256.692 442.495 248.69 443.321 240.521C443.972 234.077 443.181 227.253 439.993 211.816L437.683 200.632L439.365 198.066C441.962 194.102 444.576 194.863 450.307 201.25C453.144 204.413 460.248 211.95 466.092 218C471.937 224.05 478.429 231.7 480.519 235C482.609 238.3 486.365 244.15 488.865 248C491.365 251.85 496.533 261.066 500.348 268.48L507.285 281.959L517.327 292.706C528.911 305.102 534.677 313.068 541.994 326.783C544.865 332.164 548.628 338.285 550.357 340.384C552.086 342.483 554.912 346.234 556.637 348.72C558.363 351.205 563.313 355.956 567.637 359.277C571.962 362.598 578.864 368.732 582.975 372.907C587.086 377.083 590.799 380.5 591.225 380.5C591.651 380.5 592 379.688 592 378.696C592 375.181 585.68 366.867 575.127 356.5C563.95 345.52 559.692 339.585 547.518 318.013C539.787 304.316 535.631 298.678 523.869 285.931L515.5 276.862L510.125 266.431C507.169 260.694 501.619 250.956 497.791 244.792C493.962 238.627 491.08 233.18 491.384 232.687C491.689 232.194 494.54 230.836 497.719 229.669C500.899 228.502 509.519 224.396 516.876 220.543C524.233 216.69 530.646 213.781 531.126 214.078C533.749 215.699 531.172 224.829 522.327 245.25C521.088 248.112 525.102 246.199 528.386 242.362C532.88 237.112 537.535 225.985 539.004 216.982C540.896 205.391 541.763 203.116 548.472 192.159C565.841 163.789 581.907 133.401 587.523 118.297C591.347 108.011 593.44 105.345 600.5 101.77C603.25 100.378 607.204 97.897 609.287 96.256C615.52 91.347 629.51 73.506 634.888 63.608C640.58 53.133 656.172 28.527 657.128 28.511C657.837 28.499 660 42.034 660 46.484C660 48.08 659.144 50.874 658.097 52.693C657.05 54.512 655.875 57.575 655.485 59.5C654.663 63.56 646.672 78.909 643.597 82.336C642.444 83.622 638.728 86.653 635.339 89.073C631.951 91.494 627.534 95.392 625.524 97.737C621.227 102.75 615.35 114.412 614.424 119.762L613.773 123.524L615.136 122.994C615.886 122.703 618.378 119.435 620.672 115.732C622.967 112.029 626.458 107.125 628.43 104.833C631.822 100.889 643.071 92.177 646.442 90.884L648 90.286V95.328C648 101.864 646.909 104.553 642.154 109.742C635.852 116.619 627.743 129.25 621.74 141.542C618.662 147.844 613.804 156.15 610.944 160C605.902 166.786 600.002 177.704 600.001 180.25C599.999 182.673 601.868 181.449 605.34 176.75C607.271 174.137 610.952 169.975 613.521 167.5C619.056 162.166 624.08 154.947 629.876 144C634.79 134.721 645.153 118.609 646.25 118.544C646.663 118.52 647 120.529 647 123.009C647 126.025 645.697 130.579 643.065 136.759C640.901 141.842 638.587 148.25 637.922 151C637.221 153.9 634.884 158.493 632.357 161.938C629.96 165.203 628 168.406 628 169.054C628 169.702 625.993 174.47 623.539 179.649L619.079 189.065L617.586 198.033C615.247 212.082 613.042 217.43 605.725 226.796C600.4 233.611 604.632 232.441 613.155 224.741C618.473 219.936 620.504 215.66 624.603 200.638C628.381 186.791 634.107 173.5 636.294 173.5C638.155 173.5 644.022 188.574 644.714 195.131L645.255 200.263L642.627 206.004C641.181 209.162 639.366 214.165 638.594 217.123L637.19 222.5H638.499C639.22 222.5 641.162 220.103 642.815 217.174C644.468 214.244 646.974 211.092 648.384 210.168L650.947 208.489L652.633 211.244C653.561 212.76 655.373 215.599 656.66 217.554C657.947 219.508 659 221.643 659 222.298C659 222.952 653.806 229.129 647.458 236.024C640.53 243.549 632.862 253.246 628.277 260.28L620.637 272L601.319 291.326C590.693 301.956 582 311.068 582 311.576C582 312.084 582.563 312.496 583.25 312.492C585.088 312.48 600.678 300.696 608.618 293.318C617.047 285.486 621.889 281.5 622.975 281.5C623.427 281.5 624.104 284.557 624.479 288.294L625.162 295.088L623.577 301.204C622.705 304.568 620.477 311.299 618.627 316.16C611.666 334.446 613.299 336.431 622.147 320.438L627.921 310L630.071 301L632.221 292L631.633 283.415C631.31 278.693 631.442 273.447 631.926 271.757C633.557 266.072 644.084 251.701 652.826 243.227C657.597 238.602 662.275 233.857 663.222 232.681L664.943 230.543L667.222 231.381C668.475 231.842 669.921 233.396 670.435 234.835L671.369 237.452L666.749 246.726C662.391 255.476 659.009 260.588 647.75 275.45C643.092 281.598 642.167 283.5 643.834 283.5C644.292 283.5 648.298 280.127 652.736 276.004C660.987 268.338 668.068 259.464 674.082 249.25C676.08 245.857 678.159 243.5 679.156 243.5C682.006 243.5 689.472 249.847 689.791 252.543C690.11 255.226 680.405 272.936 669.328 289.885C661.914 301.23 651.397 321.231 652.347 322.18C652.699 322.533 653.865 322.028 654.936 321.058C658.641 317.705 687.335 275.773 692.44 266.251L697.563 256.696L699.594 257.848C703.505 260.067 709 264.748 709 265.861C709 266.479 706.293 270.898 702.984 275.681C694.925 287.329 680.625 315.203 677.553 325.25L676.865 327.5H678.25C679.691 327.5 696.119 303.363 700.03 295.5C704.026 287.465 715.053 271.5 716.606 271.5C717.438 271.5 721.917 274.698 726.56 278.608L735 285.715V289.793V293.871L729.514 303.476C726.157 309.353 723.628 315.191 722.997 318.517C721.33 327.305 718.569 330.336 702.362 341.163C693.87 346.836 682.649 355.524 675.852 361.688C669.37 367.567 661.914 373.611 659.283 375.119C656.653 376.627 651.35 379.967 647.5 382.541C636.269 390.05 630.143 393.429 600 408.743C584.325 416.706 568.8 424.815 565.5 426.761C557.526 431.465 551.965 432.917 530 436.032L511.5 438.655L499 442.702C480.411 448.72 466.865 455.976 451.064 468.378C417.402 494.801 384.522 514.239 348.395 529.074C340.753 532.212 320.561 539.253 303.524 544.72C286.487 550.188 272.193 554.881 271.758 555.15C271.323 555.418 271.263 556.116 271.623 556.7C272.798 558.6 284.925 556.701 307.583 551.069C339.379 543.165 359.333 535.846 387.418 521.782C405.772 512.591 434.116 494.047 452.5 479.201C460.619 472.645 483.119 458.718 490.318 455.793C493.532 454.487 500.142 452.353 505.006 451.051C516.981 447.846 541.94 443.107 542.722 443.889C543.07 444.236 542.237 445.754 540.871 447.26C539.505 448.767 536.5 452.569 534.193 455.708C531.886 458.847 528.537 462.55 526.749 463.937C515.377 472.76 499.708 483.494 488.5 490.139C472.562 499.587 462.487 506.297 454.548 512.748C447.232 518.694 432.052 528.753 422.5 533.986C418.65 536.095 413.079 539.355 410.12 541.23L404.741 544.641L405.795 545.695L406.849 546.749L421.675 540.333C438.311 533.133 452.526 525.078 461.584 517.719C464.929 515.001 474.829 508.364 483.584 502.97C492.338 497.577 504.45 489.905 510.5 485.921C521.386 478.752 526 476.485 526 478.304C526 478.82 523.028 484.138 519.396 490.121C509.475 506.464 504.774 515.341 505.3 516.742C506.014 518.643 516.162 507.584 522.344 498.17C525.294 493.676 529.358 485.996 531.374 481.101C533.391 476.207 537.155 468.648 539.74 464.303L544.439 456.403L553.01 448.936C557.724 444.83 563.251 440.334 565.292 438.947C570.924 435.12 598.471 420.266 617.028 411.049C626.118 406.534 637.494 400.514 642.308 397.67C647.122 394.827 651.45 392.5 651.925 392.5C653.945 392.5 650.81 400.068 645.412 408.222C638.914 418.037 630.984 426.103 604 450.34C582.2 469.921 573 479.046 573 481.088V482.57L575.12 481.436C576.287 480.811 585.737 473.871 596.121 466.012C617.376 449.925 636.093 433.407 644.858 423C651.406 415.226 663.712 395.477 668.171 385.586L671.063 379.173L683.782 366.538L696.5 353.904L703.91 350.063C708.084 347.9 711.063 346.829 710.731 347.611C710.407 348.375 706.014 359.125 700.969 371.5C691.802 393.986 676.172 429.03 673.441 433.218C672.646 434.439 665.267 440.849 657.043 447.465C642.931 458.818 634.264 467.851 629.455 476.219C625.771 482.629 629.214 480.616 640.247 469.907C646.436 463.9 656.225 455.739 662 451.773C673.387 443.952 676.533 441.295 680.353 436.273C682.973 432.828 700.402 395.026 707.22 378C710.916 368.772 719.406 349.39 722.334 343.5C723.018 342.125 724.234 341 725.038 341H726.5V360.056V379.112L722.79 386.556C720.749 390.65 715.925 399.625 712.07 406.5C705.447 418.313 703.833 422.5 705.903 422.5C706.85 422.5 718.701 405.432 723.465 397.207C724.991 394.571 726.7 392.567 727.262 392.754C728.43 393.143 734.912 410.396 735.687 415.178L736.202 418.356L729.851 427.429C726.358 432.42 717.875 446.029 711 457.672L698.5 478.842L691 486.801L683.5 494.76L670.5 500.946C648.938 511.205 626.942 524.929 602.686 543.255C593.407 550.266 590.987 552.82 592.34 554.173C593.061 554.894 609.67 545.269 624.5 535.537C630.55 531.567 645.939 523.152 658.698 516.836C692.519 500.095 698.65 494.844 711.63 471.5C715.759 464.075 721.517 454.4 724.425 450C727.333 445.6 730.49 440.486 731.441 438.636C734.167 433.331 740.959 426.5 743.508 426.5C746.03 426.5 763.295 438.605 778.531 451.056C791.3 461.49 812 482.978 812 485.799C812 487.083 808.376 491.569 802.543 497.506C796.477 503.681 792.372 508.798 791.094 511.782C789.997 514.339 787.278 518.738 785.05 521.556C780.903 526.802 780.178 528.874 782.079 530.049C783.638 531.012 791.545 522.129 796.156 514.233C798.623 510.009 802.044 505.931 805.237 503.407C810.746 499.052 817.066 495.5 819.305 495.5C820.067 495.5 823.572 497.373 827.095 499.662C834.281 504.33 845.203 509.574 861.5 516.179C867.55 518.631 886.9 527.965 904.5 536.921C936.591 553.252 945.51 557.323 946.665 556.169C947.77 555.063 944.67 552.3 936.168 546.815C924.633 539.373 884.798 517.9 859 505.219C847.175 499.406 834.8 492.588 831.5 490.068C828.2 487.547 819.586 479.219 812.358 471.56C796.094 454.327 787.732 446.715 773 435.733C766.675 431.017 759.102 425.354 756.17 423.147L750.841 419.134L747.538 412.567C745.722 408.955 742.299 399.925 739.933 392.5L735.63 379L735.201 368.164C734.58 352.456 736.175 351.893 742.751 365.5C750.814 382.183 752.464 381.782 747.098 364.442C742.586 349.865 740.419 344.287 735.566 334.765C730.715 325.244 730.881 322.653 737.235 308.863C740.114 302.613 742.702 297.5 742.985 297.5C743.268 297.501 747.472 309.313 752.327 323.75C757.182 338.188 763.096 353.945 765.468 358.766C771.267 370.552 778.221 379.5 781.582 379.5C782.91 379.5 781.217 375.23 774.606 361.904C766.354 345.272 764.177 339.58 756.901 315.613C754.127 306.476 750.314 295.773 748.429 291.828C746.543 287.884 745 284.18 745 283.597C745 281.685 750.07 281.163 753.356 282.736C757.106 284.531 779.54 304.548 782.758 308.971C784 310.677 785.494 314.757 786.078 318.037C788.474 331.493 791.282 339.315 798.63 353C806.746 368.116 810.192 373.117 811.806 372.12C813.447 371.106 811.508 365.416 803.783 348.574L796.708 333.147L796.219 326.324C795.951 322.571 795.966 319.5 796.254 319.5C797.192 319.5 815.612 326.222 817.581 327.283C821.551 329.421 824.417 333.247 843.96 362.5C867.059 397.075 868.386 398.528 884.344 406.725C905.403 417.543 927.389 433.918 947.47 453.742L959.5 465.618L972.5 474.375C990.865 486.745 1000.65 492.467 1017.12 500.453C1034.99 509.12 1046.88 513.512 1052.32 513.459L1056.5 513.419L1053.05 510.47C1051.15 508.848 1041.55 503.434 1031.71 498.438C1011.61 488.225 1003.29 483.327 981 468.579C957.438 452.987 953.964 449.119 940.96 424C932.077 406.84 926.917 398.338 918.379 386.793C913.076 379.622 911 378.002 911 381.033C911 383.118 915.474 391.81 919.989 398.5C925.948 407.327 937.061 429.5 935.527 429.5C934.787 429.5 930.878 426.739 926.841 423.364C916.606 414.809 907.609 408.966 892.5 401.062C871.477 390.064 870.021 388.723 858.755 370C855.115 363.95 847.562 352.475 841.972 344.5C836.382 336.525 830.995 328.425 830.002 326.5C827.115 320.908 823.829 318.571 813.857 315.018C808.711 313.184 803.13 311.079 801.455 310.342C798.507 309.043 780.001 293.707 765.56 280.596C755.65 271.598 750.923 270.058 740.579 272.457L736.658 273.366L732.961 271.48C730.928 270.443 726.842 267.406 723.882 264.731C717.404 258.877 696.992 242.93 689.147 237.593C675.429 228.262 658.853 206.747 654.021 192C652.759 188.15 649.951 180.509 647.78 175.021L643.834 165.042L644.297 161.521C644.749 158.081 651.372 138.795 652.482 137.685C652.79 137.377 655.114 139.122 657.646 141.562C666.079 149.691 676.355 167.591 679.869 180.271C682.167 188.562 684.019 192.313 688.122 196.987C691.071 200.345 694.82 201.876 693.664 199.25C689.919 190.747 687.893 184.661 686.589 178L685.023 170L678.97 158C675.5 151.121 670.2 142.614 666.549 138.064L660.181 130.128L657.955 122.63L655.729 115.133L656.396 105.567C656.763 100.305 657.438 91.725 657.897 86.5L658.731 77L662.396 69.25C664.48 64.844 666.685 61.5 667.507 61.5C669.955 61.5 672.256 66.274 674.176 75.334C678.01 93.421 678.391 94.216 691.142 110.704C694.245 114.717 698.248 120.925 700.037 124.5L703.29 131L704.075 129C706.501 122.815 703.221 113.652 694.316 101.738C686.59 91.401 686.492 91.175 683.508 76.874L681.187 65.747L677.155 58.374C672.421 49.719 669.634 40.272 667.898 27.007L666.645 17.427L668.145 15.927C670.369 13.703 672.338 14.971 677.159 21.733C682.375 29.049 690.725 38.973 700.394 49.348C704.316 53.557 710.779 60.877 714.756 65.615L721.988 74.23L729.971 91.376C734.362 100.806 740.152 111.78 742.839 115.761C745.525 119.742 749.417 126.375 751.488 130.5C760.236 147.929 767.83 155.265 784.062 161.963C796.47 167.084 800.871 170.054 804.5 175.757C806.15 178.349 809.848 183.965 812.719 188.235C815.589 192.506 821.407 202.075 825.649 209.5C829.89 216.925 835.836 227.05 838.863 232L844.366 241L861.47 258.5C881.141 278.627 884.56 282.65 892.492 295C895.672 299.95 900.169 306.475 902.487 309.5C904.805 312.525 911.39 322.279 917.121 331.175C928.997 349.61 938.325 361.072 948.691 369.968L955.883 376.14L972.942 384.883C991.34 394.313 1006.02 403.55 1018.14 413.326C1025.75 419.462 1032.18 426.323 1043.51 440.395C1047.03 444.771 1055.59 452.885 1064.48 460.273C1072.74 467.14 1089.08 481.936 1100.78 493.153L1122.06 513.549L1128.5 516.723C1132.04 518.469 1135.29 519.544 1135.72 519.113C1136.15 518.681 1132.22 514.199 1127 509.153C1115.25 497.804 1098 479.023 1098 477.575C1098 476.005 1104.42 476.261 1111.87 478.129C1120.98 480.413 1133.37 486.328 1145.84 494.341C1159.91 503.382 1195.67 524.358 1204.5 528.751C1211.66 532.314 1235.06 541.1 1256.5 548.276C1272.4 553.598 1278.16 555.184 1286.27 556.471L1293.05 557.546L1295.21 556.389L1297.37 555.232L1293.53 553.261C1291.41 552.176 1280.42 548.021 1269.09 544.028C1222.14 527.469 1206.36 520.371 1178.84 503.414C1171.33 498.786 1160.81 492.3 1155.45 489C1127.24 471.61 1120.95 469.047 1102.54 467.431C1096.47 466.898 1090.53 466.247 1089.34 465.985C1086.78 465.419 1073.09 455.443 1064.17 447.643C1060.68 444.598 1053.65 437.132 1048.53 431.053C1028.98 407.802 1012.24 394.337 984.5 379.547C964.009 368.621 957.788 364.341 947.409 354.028L937.317 344L925.128 326C918.424 316.1 910.253 304.216 906.969 299.591C903.686 294.966 901 290.8 901 290.333C901 289.866 904.712 287.755 909.25 285.642C913.788 283.529 924.443 277.007 932.93 271.15C941.416 265.292 948.742 260.5 949.211 260.5C951.655 260.5 950.469 265.089 943.414 282.928C932.362 310.876 935.405 310.945 949.468 283.066L957.067 268L958.967 256.328C961.086 243.315 961.772 241.666 970.196 229.324C976.088 220.691 979.536 217.323 985.769 214.113C987.567 213.187 992.671 209.295 997.111 205.464C1001.55 201.634 1005.54 198.5 1005.97 198.5C1007.08 198.5 1007.97 202.27 1007.99 207.068C1008.01 214.7 1002.3 229.394 996.702 236.101C991.773 242.005 988.208 252.207 989.405 256.98C990.3 260.542 991.499 260.109 992.816 255.75C993.44 253.688 995.55 249.75 997.507 247C999.464 244.25 1002.9 239.188 1005.14 235.75C1007.39 232.313 1009.51 229.504 1009.86 229.509C1010.87 229.522 1014.42 241.735 1014.19 244.423C1014.08 245.755 1012.35 249.805 1010.33 253.423C1004.28 264.295 1001.44 270.563 998.508 279.5C996.975 284.175 993.506 291.772 990.8 296.382C983.642 308.578 971.423 333.309 968.995 340.514C967.712 344.322 967.023 348.53 967.217 351.367L967.534 356L974.222 342.5C987.45 315.802 994.342 303.975 996.056 305.034C996.461 305.285 997.289 308.336 997.894 311.815C998.5 315.293 1000.11 321.329 1001.47 325.227L1003.95 332.315L1000.9 342.158C999.225 347.571 996.991 354.217 995.938 356.928C992.369 366.107 996.771 364.113 1002.06 354.154C1005.95 346.834 1008.96 343.265 1009.67 345.15C1009.91 345.783 1011.57 348.258 1013.36 350.65C1015.15 353.043 1017.7 357.401 1019.02 360.335L1021.42 365.669L1019.19 376.835C1016.58 389.889 1016.38 394.5 1018.43 394.5C1019.66 394.5 1023.92 385.073 1026.47 376.697L1027.17 374.395L1028.53 375.52C1029.27 376.14 1031.04 379.667 1032.45 383.358C1035.43 391.166 1037.73 394.788 1039.14 393.914C1042.81 391.644 1031.45 363.079 1019.57 344.715C1017.1 340.894 1014.21 335.57 1013.16 332.884C1010.26 325.521 1006.27 309.993 1004.96 301L1003.79 293L1006.95 284.5C1011.47 272.324 1020.32 253.533 1021.54 253.515C1023.41 253.488 1030.05 267.236 1031.52 274.195C1032.32 277.938 1032.97 284.409 1032.98 288.575C1033 296.548 1036.33 317.385 1038.12 320.733C1038.7 321.814 1042.76 326.554 1047.13 331.266C1058.95 343.993 1064.31 351.58 1071.67 366C1075.31 373.15 1080.08 381.631 1082.25 384.846C1086.78 391.536 1098.16 403.5 1100 403.5C1102.06 403.5 1100.59 400.291 1093.74 389.902C1090.16 384.456 1083.51 372.8 1078.97 364C1070.1 346.814 1062.97 336.033 1053.62 325.687C1050.39 322.108 1046.93 317.337 1045.93 315.084C1043.6 309.807 1042.02 299.98 1041.99 290.5C1041.93 273.763 1038.79 262.916 1029.96 248.931C1027.25 244.646 1023.74 237.959 1022.14 234.07L1019.25 227L1018.63 216.918C1018.29 211.373 1017.49 204.398 1016.85 201.418C1016.22 198.438 1015.65 194.425 1015.6 192.5L1015.5 189L1017.54 188.708L1019.57 188.417L1024.63 194.708C1027.41 198.169 1033.47 205.05 1038.1 210C1053.3 226.268 1054.41 227.988 1062.58 247.886C1065.37 254.665 1070.28 262.577 1081.04 277.649C1084.04 281.856 1089.42 290.095 1092.99 295.959C1096.56 301.822 1100.72 308.128 1102.24 309.972C1103.76 311.815 1110.4 316.723 1117 320.877C1130.56 329.413 1150.68 345.374 1165.46 359.32C1180.48 373.486 1193.82 390.775 1203.71 408.882C1214.05 427.828 1220.58 436.377 1239.74 456.088C1249.77 466.408 1258.29 474.542 1258.67 474.163C1260.73 472.107 1248.81 455.71 1233.43 439.424C1226.56 432.146 1220.37 424.39 1216.78 418.537C1208.74 405.473 1210 404.505 1224.38 412.693C1235.34 418.933 1243.93 426.896 1252.78 439C1263.72 453.975 1267.86 458.28 1283.19 470.588C1298.21 482.646 1303.49 486.143 1304.41 484.653C1304.88 483.892 1296.61 475.583 1274.4 454.5C1265.74 446.284 1258.47 437.328 1255.14 430.79C1250.95 422.551 1252.14 422.073 1267 426.044C1278.61 429.147 1284.1 432.326 1311 451.493C1322.27 459.528 1334.23 467.954 1337.57 470.217C1348.85 477.863 1376.09 490.921 1396 498.231C1437.72 513.546 1471.36 522.418 1465.43 516.541C1464.38 515.498 1421.36 498.349 1401.5 491.056C1375.75 481.601 1345.91 465.887 1328.16 452.437C1323.4 448.827 1314.72 442.243 1308.88 437.807C1289.32 422.958 1277.6 417.409 1261.5 415.379C1244.31 413.212 1242.6 412.736 1232.5 407.321C1227 404.372 1220.03 400.907 1217 399.621C1208.84 396.153 1205.71 393.378 1199.09 383.731C1195.8 378.929 1190.83 372.319 1188.05 369.043C1185.27 365.767 1183 362.796 1183 362.44C1183 361.454 1195.95 353.06 1202.82 349.592C1206.17 347.9 1212.81 344.214 1217.57 341.402L1226.22 336.29L1233.86 328.155C1260.22 300.081 1266.1 294.83 1272.28 293.858L1275.5 293.351L1280.36 296.593C1287.23 301.178 1299.18 313.449 1307.04 324C1319.49 340.711 1320.2 341.433 1352.88 371C1360.17 377.6 1369.22 386.825 1372.99 391.5C1381.73 402.355 1392.11 412.406 1403.5 421.033C1408.45 424.783 1416.1 430.632 1420.5 434.031C1424.9 437.431 1429.48 440.728 1430.69 441.359L1432.88 442.505L1433.62 441.301C1434.1 440.53 1430.29 436.306 1423.02 429.549C1397.09 405.443 1375.97 383 1376.02 379.586C1376.04 377.868 1382.12 373.165 1386.44 371.524L1389.11 370.507L1392.17 372.087C1393.85 372.956 1404.32 382.742 1415.43 393.834C1437.48 415.843 1443.79 421.144 1468.81 438.726C1488.46 452.532 1499.66 458.569 1506.91 459.265C1516.24 460.162 1515.23 459.191 1482.62 436.044C1448.17 411.586 1446.06 409.834 1423.5 386.919C1412.5 375.748 1401.09 365.009 1398.15 363.054C1390.18 357.76 1385.26 358.349 1374.26 365.915C1371.39 367.887 1368.55 369.5 1367.94 369.5C1366.45 369.5 1344.91 350.388 1332.43 338C1326.89 332.5 1319.18 323.5 1315.3 318C1308 307.661 1292.14 291.409 1283.72 285.64C1281.09 283.839 1277.44 282.121 1275.6 281.822L1272.25 281.279L1265.38 284.554L1258.5 287.83L1250.49 295.915C1246.09 300.362 1237.94 308.95 1232.39 315L1222.3 326L1211.99 332C1206.32 335.3 1195.81 341.487 1188.65 345.75C1181.48 350.013 1175.15 353.5 1174.58 353.5C1174.01 353.5 1170.61 350.601 1167.03 347.058C1163.44 343.516 1151.27 333.612 1140 325.05C1128.73 316.488 1117.58 308.024 1115.23 306.241C1112.53 304.19 1106.95 297.127 1100.03 287C1094.01 278.2 1085.7 266.05 1081.56 260C1077.42 253.95 1072.6 245.4 1070.85 241C1063.85 223.392 1061.05 219.165 1044.88 201.832C1039.72 196.299 1033.72 189.545 1031.54 186.823C1026.29 180.278 1021.31 176.5 1017.92 176.5C1014.89 176.5 1008.46 180.918 1000.5 188.481C995.698 193.041 989.357 197.967 976.173 207.379L970.039 211.758L962.495 222.879C947.327 245.236 945.06 248.26 940.226 252.589C932.712 259.318 920.726 267.62 908 274.91L896.5 281.498L891.005 275.249C887.983 271.812 878.266 261.575 869.412 252.5C860.558 243.425 851.815 233.525 849.985 230.5C848.155 227.475 844.435 221.4 841.718 217C839.002 212.6 835.423 206.3 833.765 203C832.107 199.7 827.94 192.725 824.505 187.5C821.069 182.275 817.082 175.906 815.643 173.346C814.205 170.786 810.761 166.211 807.99 163.179L802.951 157.666L795.226 154.511C776.422 146.831 769.009 140.658 761.555 126.473C759.398 122.367 754.831 114.731 751.407 109.504C745.597 100.636 742.356 94.386 733.75 75.456L730.32 67.911L721.199 57.456C716.182 51.705 708.647 43.175 704.454 38.5C700.261 33.825 693.544 25.725 689.526 20.5C682.824 11.784 675.806 4.85401 670.571 1.78501C667.616 0.0530088 664.529 0.225005 662.263 2.25001ZM601.262 128.737C598.353 131.854 594.465 139.91 592.689 146.5C591.874 149.525 589.934 155.462 588.379 159.693C584.283 170.838 587.404 172.057 593.303 161.616C596.733 155.544 605.295 128.395 604.143 127.243C603.72 126.82 602.423 127.492 601.262 128.737ZM714.637 166.196C713.234 167.6 714.19 169.694 718.086 173.748C723.482 179.364 726.073 183.549 729.388 192C731.765 198.058 736.311 206.699 753.723 238.25C755.62 241.688 757.583 244.5 758.086 244.5C761.516 244.5 755.184 226.352 745.525 208.5C741.508 201.075 736.187 190.95 733.701 186C729.332 177.304 725.162 172.317 718.387 167.686C716.675 166.516 714.988 165.846 714.637 166.196ZM761.69 182.143C760.428 183.406 760.976 189.25 762.913 195.161C769.426 215.045 792.279 258.5 796.222 258.5C797.463 258.5 796.503 255.595 791.765 245C789.551 240.05 786.178 231.5 784.27 226C780.854 216.15 766.106 185.21 763.644 182.726C762.949 182.026 762.07 181.763 761.69 182.143ZM569.349 210.897C566.132 213.315 562.109 217.028 560.408 219.147C554.13 226.969 535.33 259.164 536.41 260.243C537.696 261.53 543.552 254.46 552.731 240.538C558.256 232.158 565.572 222.623 570.13 217.864C575.467 212.291 577.801 209.145 577.391 208.076C576.513 205.789 575.821 206.032 569.349 210.897ZM708.482 207.528C707.748 208.717 712.295 221.342 715.315 226.5C718.048 231.166 724.957 239.5 726.093 239.5C728.212 239.5 726.633 234.437 722.04 226.5C719.334 221.825 715.631 215.418 713.81 212.262C710.446 206.43 709.617 205.693 708.482 207.528ZM794 215.106C794 223.684 797.97 234.145 809.261 255.315C816.339 268.586 822.898 277.5 825.585 277.5C827.625 277.5 827.499 277.14 822.125 267.629C803.958 235.471 801.95 231.181 796.437 212.75C795.641 210.09 794 211.677 794 215.106ZM582.499 223.133C576.152 230.729 565.493 246.371 564.472 249.589C564.112 250.723 564.085 251.919 564.413 252.246C565.415 253.248 569.807 248.51 578.547 237C587.354 225.402 590.401 219.767 589.05 217.58L588.237 216.266L582.499 223.133ZM971.087 257.898C964.709 277.206 962.843 285.5 964.879 285.5C966.771 285.5 969.685 279.776 974.539 266.527L979.128 254L979.314 247.104C979.631 235.328 977.711 237.848 971.087 257.898ZM1275 328.283C1275 329.263 1276.54 332.976 1278.42 336.533C1280.3 340.09 1283.69 347.915 1285.94 353.922C1291.84 369.671 1308.78 400.67 1309.8 397.594C1310.25 396.25 1306.43 385.963 1304.02 382C1300.42 376.096 1294.1 362.825 1290.07 352.69C1285.03 340.032 1280.86 331.72 1278.05 328.75C1275.48 326.034 1275 325.96 1275 328.283ZM112.278 337.922C105.005 346.184 96.005 359.74 85.74 377.893L75.5 396L66 405.5C60.775 410.725 54.925 416.194 53 417.654L49.5 420.307L51.325 421.04C54.276 422.223 60.652 419.721 66.269 415.174C73.669 409.183 83.132 396.106 92.943 378.312C100.962 363.769 104.612 357.712 114.641 342.303C117.039 338.62 119 335.132 119 334.553C119 332.219 115.954 333.745 112.278 337.922ZM160.588 350.25C161.947 357.765 170.428 373.5 173.119 373.5C175.113 373.5 173.68 369.269 167.932 358.193C161.659 346.107 159.395 343.658 160.588 350.25ZM1100 350.777C1100 354.159 1106.17 362.197 1120.53 377.5C1128.01 385.477 1131.19 390.105 1139.61 405.212C1151 425.659 1159.94 438.192 1170.2 448.117C1180.38 457.954 1183.46 460.176 1184.54 458.444C1185.41 457.028 1181.7 451.875 1171.97 441C1161.73 429.558 1156.17 421.469 1146.52 404C1142.27 396.3 1136.72 387.075 1134.2 383.5C1129.68 377.085 1102.42 348.5 1100.82 348.5C1100.37 348.5 1100 349.525 1100 350.777ZM1243 356.671C1236.97 366.215 1230.95 372.771 1223.6 377.813L1217.5 381.994L1219.68 382.307C1223.69 382.884 1231.83 378.465 1236.83 372.997C1241.25 368.157 1247.84 357.066 1249.45 351.75C1250.88 347.046 1247.41 349.689 1243 356.671ZM1309 350.348C1309 350.815 1313.71 359.252 1319.47 369.098C1325.23 378.944 1331.87 390.357 1334.22 394.459C1340.71 405.776 1362.26 427.576 1364.62 425.214C1365.39 424.442 1358.41 414.592 1349.58 404C1342.53 395.529 1342.2 395.059 1325.7 369.806C1319.88 360.9 1314.19 352.687 1313.06 351.556C1310.94 349.435 1309 348.859 1309 350.348ZM53.303 375.216C52.645 375.444 47.029 382.464 40.824 390.816C34.619 399.167 23.657 413.425 16.466 422.5C1.223 441.735 1.384 441.5 3.438 441.5C8.855 441.5 40.859 402.71 51.489 383.26C55.134 376.591 55.626 374.409 53.303 375.216ZM330.352 398.36C322.566 404 307 423.195 307 427.155C307 430.053 309.957 428.239 314.034 422.839C316.384 419.726 322.288 413 327.154 407.892C332.019 402.785 336 398.159 336 397.612C336 395.419 334.056 395.677 330.352 398.36ZM811.614 404.315C809.813 407.23 818.605 421.179 830.803 434.756C833.936 438.244 841.205 446.364 846.956 452.799C856.209 463.154 860 466.321 860 463.696C860 461.716 852.832 451.964 841.642 438.717C830.038 424.981 820.98 414.009 815.088 406.552C813.218 404.185 812.128 403.483 811.614 404.315ZM861 425.56C861 427.133 863.647 430.758 877.466 448.11C884.085 456.42 892.354 466.849 895.843 471.286C903.582 481.128 925.593 502.87 926.961 502.024C928.539 501.049 921.22 490.13 912.985 481.173C905.772 473.329 897.917 464.014 885.853 449C879.298 440.842 865.868 427.035 862.989 425.494L861 424.43V425.56ZM257 480.053C242.061 485.801 228.811 492.223 217 499.44C204.618 507.006 201.274 508.656 187.775 513.867C156.338 526.003 114.789 537.5 102.369 537.5C101.066 537.5 100 537.885 100 538.355C100 539.846 112.68 540.464 121.756 539.416C139.538 537.363 155.025 533.562 178.082 525.592C195.86 519.447 206.335 514.748 217.867 507.744C223.715 504.193 236.375 497.006 246 491.773C267.193 480.251 271.25 477.713 270.477 476.462C269.664 475.147 269.935 475.075 257 480.053Z" fill="black"/>
</svg>
